<svg width="24" height="24" viewBox="0 0 24 24" fill="none" xmlns="http://www.w3.org/2000/svg">
<path fill-rule="evenodd" clip-rule="evenodd" d="M11.4702 3.46983C11.6108 3.32938 11.8014 3.25049 12.0002 3.25049C12.1989 3.25049 12.3895 3.32938 12.5302 3.46983L18.5302 9.46983C18.6038 9.53849 18.6629 9.62129 18.7039 9.71329C18.7449 9.80529 18.767 9.9046 18.7687 10.0053C18.7705 10.106 18.752 10.206 18.7143 10.2994C18.6766 10.3928 18.6204 10.4776 18.5492 10.5489C18.478 10.6201 18.3931 10.6762 18.2997 10.714C18.2064 10.7517 18.1063 10.7702 18.0056 10.7684C17.9049 10.7666 17.8056 10.7446 17.7136 10.7036C17.6216 10.6626 17.5388 10.6035 17.4702 10.5298L12.7502 5.80983V19.9998C12.7502 20.1987 12.6711 20.3895 12.5305 20.5302C12.3898 20.6708 12.1991 20.7498 12.0002 20.7498C11.8012 20.7498 11.6105 20.6708 11.4698 20.5302C11.3292 20.3895 11.2502 20.1987 11.2502 19.9998V5.80983L6.53015 10.5298C6.46149 10.6035 6.37869 10.6626 6.28669 10.7036C6.19469 10.7446 6.09538 10.7666 5.99468 10.7684C5.89397 10.7702 5.79394 10.7517 5.70056 10.714C5.60717 10.6762 5.52233 10.6201 5.45112 10.5489C5.3799 10.4776 5.32375 10.3928 5.28603 10.2994C5.24831 10.206 5.22979 10.106 5.23156 10.0053C5.23334 9.9046 5.25538 9.80529 5.29637 9.71329C5.33736 9.62129 5.39647 9.53849 5.47015 9.46983L11.4702 3.46983Z" fill="white"/>
</svg>
