<svg width="24" height="24" viewBox="0 0 24 24" fill="none" xmlns="http://www.w3.org/2000/svg">
<path fill-rule="evenodd" clip-rule="evenodd" d="M3.46983 12.53C3.32938 12.3893 3.25049 12.1987 3.25049 12C3.25049 11.8012 3.32938 11.6106 3.46983 11.47L9.46983 5.46997C9.53849 5.39628 9.62129 5.33718 9.71329 5.29619C9.80529 5.2552 9.9046 5.23315 10.0053 5.23138C10.106 5.2296 10.206 5.24813 10.2994 5.28585C10.3928 5.32357 10.4776 5.37971 10.5489 5.45093C10.6201 5.52215 10.6762 5.60698 10.714 5.70037C10.7517 5.79376 10.7702 5.89379 10.7684 5.99449C10.7666 6.09519 10.7446 6.19451 10.7036 6.28651C10.6626 6.37851 10.6035 6.46131 10.5298 6.52997L5.80983 11.25H19.9998C20.1987 11.25 20.3895 11.329 20.5302 11.4696C20.6708 11.6103 20.7498 11.8011 20.7498 12C20.7498 12.1989 20.6708 12.3896 20.5302 12.5303C20.3895 12.671 20.1987 12.75 19.9998 12.75H5.80983L10.5298 17.47C10.6035 17.5386 10.6626 17.6214 10.7036 17.7134C10.7446 17.8054 10.7666 17.9047 10.7684 18.0054C10.7702 18.1061 10.7517 18.2062 10.714 18.2996C10.6762 18.393 10.6201 18.4778 10.5489 18.549C10.4776 18.6202 10.3928 18.6764 10.2994 18.7141C10.206 18.7518 10.106 18.7703 10.0053 18.7686C9.9046 18.7668 9.80529 18.7447 9.71329 18.7037C9.62129 18.6628 9.53849 18.6037 9.46983 18.53L3.46983 12.53Z" fill="black"/>
</svg>
