<svg width="12" height="12" viewBox="0 0 12 12" fill="none" xmlns="http://www.w3.org/2000/svg">
<path d="M6 1C8.7615 1 11 3.2385 11 6C11 8.7615 8.7615 11 6 11C5.202 11.0011 4.41541 10.8104 3.7065 10.444L1.7935 10.9775C1.68677 11.0073 1.57405 11.0082 1.46687 10.98C1.35969 10.9519 1.26191 10.8958 1.18356 10.8174C1.10521 10.7391 1.04909 10.6413 1.02097 10.5341C0.992843 10.427 0.993718 10.3142 1.0235 10.2075L1.5575 8.296C1.19018 7.58647 0.998966 6.79897 1 6C1 3.2385 3.2385 1 6 1ZM6 1.75C4.87283 1.75 3.79183 2.19777 2.9948 2.9948C2.19777 3.79183 1.75 4.87283 1.75 6C1.75 6.735 1.9365 7.4415 2.2865 8.0685L2.3615 8.2035L1.8055 10.1955L3.799 9.6395L3.934 9.7145C4.5012 10.0298 5.13307 10.2111 5.78118 10.2444C6.42928 10.2777 7.07641 10.1621 7.67292 9.90655C8.26944 9.65097 8.79951 9.26219 9.22248 8.77C9.64545 8.27782 9.95009 7.69531 10.113 7.06714C10.276 6.43897 10.2929 5.78182 10.1625 5.14609C10.0321 4.51037 9.75789 3.91294 9.36082 3.39963C8.96376 2.88632 8.45441 2.47076 7.87185 2.18481C7.28928 1.89886 6.64896 1.75012 6 1.75ZM4.375 6.5H6.624C6.71902 6.50003 6.81047 6.53612 6.8799 6.60099C6.94933 6.66585 6.99154 6.75465 6.99802 6.84944C7.00449 6.94423 6.97475 7.03795 6.91479 7.11165C6.85483 7.18535 6.76913 7.23355 6.675 7.2465L6.624 7.25H4.375C4.27999 7.24997 4.18853 7.21388 4.11911 7.14901C4.04968 7.08415 4.00747 6.99535 4.00099 6.90056C3.99452 6.80577 4.02426 6.71205 4.08422 6.63835C4.14418 6.56465 4.22988 6.51645 4.324 6.5035L4.375 6.5ZM4.375 4.75H7.6275C7.72247 4.75015 7.81385 4.78634 7.88318 4.85124C7.95251 4.91614 7.99463 5.00494 8.00104 5.09969C8.00745 5.19444 7.97767 5.2881 7.91771 5.36175C7.85775 5.4354 7.77209 5.48356 7.678 5.4965L7.6275 5.5H4.375C4.27999 5.49997 4.18853 5.46388 4.11911 5.39901C4.04968 5.33415 4.00747 5.24535 4.00099 5.15056C3.99452 5.05577 4.02426 4.96205 4.08422 4.88835C4.14418 4.81465 4.22988 4.76645 4.324 4.7535L4.375 4.75Z" fill="#848484"/>
</svg>
