<svg width="16" height="16" viewBox="0 0 16 16" fill="none" xmlns="http://www.w3.org/2000/svg">
<path d="M7.1535 3.38192C7.43454 3.34938 7.71724 3.33313 8.00016 3.33325C11.1095 3.33325 13.6002 5.26859 14.6668 7.99992C14.4086 8.66429 14.0597 9.28977 13.6302 9.85859M4.34683 4.34592C2.98683 5.17592 1.9335 6.46192 1.3335 7.99992C2.40016 10.7313 4.89083 12.6666 8.00016 12.6666C9.28825 12.6734 10.5529 12.3226 11.6535 11.6533M6.58683 6.58659C6.4011 6.77232 6.25376 6.99282 6.15325 7.23549C6.05273 7.47816 6.00099 7.73825 6.00099 8.00092C6.00099 8.26359 6.05273 8.52368 6.15325 8.76635C6.25376 9.00902 6.4011 9.22952 6.58683 9.41525C6.77256 9.60099 6.99306 9.74832 7.23573 9.84883C7.4784 9.94935 7.7385 10.0011 8.00116 10.0011C8.26383 10.0011 8.52392 9.94935 8.76659 9.84883C9.00927 9.74832 9.22976 9.60099 9.4155 9.41525" stroke="#848484" stroke-linecap="round" stroke-linejoin="round"/>
<path d="M2.66699 2.66663L13.3337 13.3333" stroke="#848484" stroke-linecap="round"/>
</svg>
