<svg width="24" height="24" viewBox="0 0 24 24" fill="none" xmlns="http://www.w3.org/2000/svg">
<path d="M6.94 14.0329C6.71939 14.6208 6.51729 15.2154 6.334 15.8159C7.294 15.1189 8.435 14.6759 9.752 14.5119C12.265 14.1979 14.498 12.5389 15.628 10.4539L14.172 8.99895L15.585 7.58395L16.585 6.58195C17.015 6.15295 17.5 5.35795 18.013 4.21495C12.42 5.08195 8.996 8.50595 6.94 14.0329ZM17 8.99695L18 9.99695C17 12.9969 14 15.9969 10 16.4969C7.33133 16.8303 5.664 18.6636 4.998 21.9969H3C4 15.9969 6 1.99695 21 1.99695C20 4.99428 19.001 6.99328 18.003 7.99395L17 8.99695Z" fill="white"/>
</svg>
