<svg width="12" height="12" viewBox="0 0 12 12" fill="none" xmlns="http://www.w3.org/2000/svg">
<path fill-rule="evenodd" clip-rule="evenodd" d="M10.1544 2.38441C11.2818 3.5636 11.2818 5.47547 10.1544 6.65468L6 11L1.84554 6.65468C0.718152 5.47547 0.718152 3.5636 1.84554 2.38439C2.89158 1.29033 4.54064 1.21134 5.67371 2.14751C5.76309 2.22144 5.84808 2.30054 5.92824 2.38439L6 2.45946L6.07175 2.38441C6.15312 2.29931 6.23813 2.22035 6.32628 2.14751C7.45936 1.21134 9.1084 1.2903 10.1544 2.38441ZM2.56836 3.07544C3.30193 2.30817 4.47186 2.30817 5.20543 3.07544L6 3.90654L6.79456 3.07547C7.52813 2.30819 8.69806 2.30819 9.43163 3.07547C10.1894 3.86808 10.1894 5.17099 9.43163 5.96362L9.35989 6.03867L6 9.55294L2.56836 5.96362C1.81055 5.17099 1.81055 3.86808 2.56836 3.07544Z" fill="#848484"/>
</svg>
