<svg width="178" height="197" viewBox="0 0 178 197" fill="none" xmlns="http://www.w3.org/2000/svg">
<path d="M142.25 59.5364C142.86 87.036 132.75 100.296 106.982 113.377C97.4154 95.4795 78.7695 81.5095 76.25 57.7964C78.9607 36.231 116.75 19.5365 116.75 0.536464C128.623 14.6099 141.788 38.7097 142.25 59.5364Z" fill="#04A954"/>
<path d="M176.25 78.5364C176.86 106.036 166.75 119.296 140.982 132.377C131.415 114.48 112.769 100.51 110.25 76.7964C112.961 55.231 150.75 38.5365 150.75 19.5365C162.623 33.6099 175.788 57.7097 176.25 78.5364Z" fill="#02C15F"/>
<path d="M99.7457 147C99.7457 174.614 77.3599 196.5 49.7457 196.5C21.7457 196 0.745673 174.5 0.245673 147C0.245673 119 22.1314 97 49.7457 97C77.3599 97 100.746 119.5 99.7457 147Z" fill="white"/>
<path d="M86.2383 112.501C93.509 120.133 98.1698 129.855 99.5527 140.275C100.936 150.695 98.9696 161.278 93.9365 170.506C88.9034 179.734 81.0615 187.134 71.5349 191.645C62.0082 196.156 51.2859 197.547 40.9045 195.619C30.5232 193.69 21.0159 188.541 13.7452 180.909C6.4745 173.277 1.8137 163.554 0.430806 153.134C-0.952093 142.714 1.0139 132.132 6.04702 122.904C11.0801 113.676 18.922 106.276 28.4486 101.765L37.0659 119.741C31.3499 122.448 26.6448 126.887 23.6249 132.424C20.605 137.961 19.4254 144.311 20.2552 150.563C21.0849 156.815 25.9517 169.058 33.5073 169.45C41.0629 169.841 34.8358 131.745 52.1727 134.966C69.5096 138.186 52.3175 171.932 58.5783 174.107C64.8391 176.282 73.3387 166.522 76.3586 160.985C79.3785 155.449 80.5581 149.099 79.7283 142.847C78.8986 136.595 76.1021 130.762 71.7397 126.182L86.2383 112.501Z" fill="#D20000"/>
<circle cx="67" cy="81" r="50" fill="white"/>
<path d="M116.598 74.6742C115.082 62.7826 109.343 51.8317 100.428 43.8171C91.5132 35.8024 80.0154 31.2576 68.0301 31.0106C56.0447 30.7637 44.3695 34.8311 35.1321 42.4717C25.8946 50.1124 19.7098 60.8176 17.7045 72.6366C15.6993 84.4556 18.0073 96.6017 24.2078 106.861C30.4083 117.121 40.0886 124.812 51.4847 128.532C62.8809 132.252 75.9974 133.158 87.0569 128.532C102.5 123.5 115.5 104.5 116.598 91.5L96.759 93C95 100 85.6357 106.744 79 109.519C72.3643 112.295 64.5286 111.751 57.6909 109.519C50.8532 107.287 45.045 102.673 41.3247 96.5169C37.6044 90.361 36.2197 83.0734 37.4228 75.9819C38.6259 68.8905 42.3368 62.4674 47.8793 57.883C53.4218 53.2987 60.4269 50.8582 67.6181 51.0064C74.8093 51.1545 81.708 53.8815 87.0569 58.6902C92.4058 63.499 95.849 70.0695 96.759 77.2045L116.598 74.6742Z" fill="#D20000"/>
<path d="M31.9999 78.6457L115 67.5001L116 71L117.5 80.5V82L34.0276 94.5167L31.9999 78.6457Z" fill="#D20000"/>
<circle cx="126" cy="132" r="50" fill="white"/>
<path d="M175.598 125.674C174.082 113.783 168.343 102.832 159.428 94.8171C150.513 86.8024 139.015 82.2576 127.03 82.0106C115.045 81.7637 103.37 85.8311 94.1321 93.4717C84.8946 101.112 78.7098 111.818 76.7045 123.637C74.6993 135.456 77.0073 147.602 83.2078 157.861C89.4083 168.121 99.0886 175.812 110.485 179.532C121.881 183.252 134.997 184.158 146.057 179.532C161.5 174.5 174.5 155.5 175.598 142.5L155.759 144C154 151 144.636 157.744 138 160.519C131.364 163.295 123.529 162.751 116.691 160.519C109.853 158.287 104.045 153.673 100.325 147.517C96.6044 141.361 95.2197 134.073 96.4228 126.982C97.6259 119.891 101.337 113.467 106.879 108.883C112.422 104.299 119.427 101.858 126.618 102.006C133.809 102.155 140.708 104.881 146.057 109.69C151.406 114.499 154.849 121.07 155.759 128.204L175.598 125.674Z" fill="#C81010"/>
<path d="M90.9999 129.646L174 118.5L175 122L176.5 131.5V133L93.0276 145.517L90.9999 129.646Z" fill="#C81010"/>
</svg>
