<svg width="16" height="16" viewBox="0 0 16 16" fill="none" xmlns="http://www.w3.org/2000/svg">
<g clip-path="url(#clip0_410_259)">
<path d="M8.05402 5.02205C6.39727 5.02205 5.05402 6.3653 5.05402 8.02205C5.05402 9.67855 6.39727 11.0221 8.05402 11.0221C9.71077 11.0221 11.054 9.6788 11.054 8.02205C11.054 6.3653 9.71077 5.02205 8.05402 5.02205ZM8.05402 10.0221C6.95127 10.0221 6.03101 9.10305 6.03101 8.00029C6.03101 6.89752 6.92826 6.00029 8.03101 6.00029C9.13401 6.00029 10.031 6.89754 10.031 8.00029C10.031 9.10304 9.15702 10.0221 8.05402 10.0221ZM15.9948 7.88405C15.989 7.8588 15.9915 7.8321 15.984 7.80733C15.9808 7.79685 15.9743 7.79085 15.9705 7.7816C15.9653 7.76735 15.9665 7.7506 15.9593 7.73685C14.505 4.4071 11.3708 2.4906 8.03079 2.4906C4.69079 2.4906 1.49379 4.4036 0.0387891 7.7336C0.0325391 7.74762 0.0335391 7.7621 0.0285234 7.77812C0.0250391 7.78787 0.0177891 7.79335 0.0145391 7.8026C0.00678906 7.82785 0.00978906 7.8541 0.00503906 7.8796C-0.00419531 7.9246 -0.0126953 7.96835 -0.0126953 8.01385C-0.0126953 8.05985 -0.00419531 8.10235 0.00503906 8.14808C0.0100391 8.17308 0.00680469 8.20033 0.0145547 8.22433C0.0178047 8.23558 0.0250547 8.24033 0.0285391 8.25058C0.0337891 8.26433 0.0325391 8.28133 0.0387891 8.29508C1.49404 11.6241 4.65979 13.5093 7.99979 13.5093C11.34 13.5093 14.505 11.6281 15.9598 8.29832C15.967 8.28407 15.9656 8.26907 15.971 8.25332C15.9745 8.24457 15.9813 8.23807 15.9843 8.22832C15.992 8.20382 15.9895 8.17707 15.995 8.15157C16.0038 8.10682 16.012 8.06307 16.012 8.01682C16.012 7.97282 16.0038 7.92932 15.9948 7.88405ZM7.99977 12.5093C5.16702 12.5093 2.37879 11.0161 1.00879 8.01433C2.36579 5.02258 5.19129 3.49083 8.03104 3.49083C10.8698 3.49083 13.6325 5.02433 14.99 8.01758C13.6335 11.0083 10.8395 12.5093 7.99977 12.5093Z" fill="#848484"/>
</g>
<defs>
<clipPath id="clip0_410_259">
<rect width="16" height="16" fill="white"/>
</clipPath>
</defs>
</svg>
