<svg width="24" height="24" viewBox="0 0 24 24" fill="none" xmlns="http://www.w3.org/2000/svg">
<path d="M12.0001 2.40002C10.7271 2.40002 9.50616 2.90574 8.60598 3.80591C7.70581 4.70609 7.2001 5.92699 7.2001 7.20002C7.2001 8.47306 7.70581 9.69396 8.60598 10.5941C9.50616 11.4943 10.7271 12 12.0001 12C13.2731 12 14.494 11.4943 15.3942 10.5941C16.2944 9.69396 16.8001 8.47306 16.8001 7.20002C16.8001 5.92699 16.2944 4.70609 15.3942 3.80591C14.494 2.90574 13.2731 2.40002 12.0001 2.40002ZM6.0109 13.2C5.69482 13.1986 5.38157 13.2596 5.08914 13.3796C4.79671 13.4996 4.53086 13.6761 4.30686 13.8991C4.08285 14.1221 3.9051 14.3872 3.78381 14.6791C3.66253 14.971 3.60009 15.2839 3.6001 15.6C3.6001 17.6292 4.5997 19.1592 6.1621 20.1564C7.7005 21.1368 9.7741 21.6 12.0001 21.6C14.2261 21.6 16.2997 21.1368 17.8381 20.1564C19.4005 19.1604 20.4001 17.628 20.4001 15.6C20.4001 14.9635 20.1472 14.3531 19.6972 13.903C19.2471 13.4529 18.6366 13.2 18.0001 13.2H6.0109Z" fill="white"/>
</svg>
