<svg width="20" height="20" viewBox="0 0 20 20" fill="none" xmlns="http://www.w3.org/2000/svg">
<path d="M12 3.00595C12 2.13295 10.96 1.67895 10.32 2.27295L6.448 5.86595C6.35564 5.95191 6.23418 5.99978 6.108 5.99995H3.5C3.10218 5.99995 2.72064 6.15798 2.43934 6.43929C2.15804 6.72059 2 7.10212 2 7.49995V12.4999C2 12.8978 2.15804 13.2793 2.43934 13.5606C2.72064 13.8419 3.10218 13.9999 3.5 13.9999H6.107C6.23305 13.9998 6.35448 14.0473 6.447 14.1329L10.32 17.7269C10.96 18.3199 12 17.8669 12 16.9939V3.00595ZM15.254 4.62695C15.303 4.58321 15.3601 4.54956 15.4221 4.5279C15.4841 4.50624 15.5497 4.49701 15.6153 4.50072C15.6808 4.50444 15.745 4.52103 15.8042 4.54955C15.8633 4.57807 15.9163 4.61796 15.96 4.66695C17.2717 6.13363 17.9969 8.03228 17.9969 9.99995C17.9969 11.9676 17.2717 13.8663 15.96 15.3329C15.9164 15.3826 15.8634 15.423 15.8041 15.4521C15.7447 15.4811 15.6802 15.4981 15.6143 15.502C15.5484 15.506 15.4823 15.4968 15.4199 15.4751C15.3576 15.4533 15.3001 15.4195 15.2509 15.3754C15.2017 15.3314 15.1617 15.278 15.1332 15.2184C15.1048 15.1588 15.0884 15.0941 15.085 15.0282C15.0817 14.9622 15.0915 14.8962 15.1138 14.8341C15.1361 14.7719 15.1705 14.7147 15.215 14.6659C16.3628 13.3826 16.9974 11.7212 16.9974 9.99945C16.9974 8.27768 16.3628 6.61631 15.215 5.33295C15.1266 5.23415 15.081 5.10427 15.0883 4.97187C15.0956 4.83947 15.1552 4.7154 15.254 4.62695ZM14.079 12.9329C14.0221 12.9002 13.9721 12.8565 13.9321 12.8045C13.892 12.7524 13.8626 12.693 13.8455 12.6296C13.8284 12.5661 13.824 12.5 13.8325 12.4348C13.841 12.3697 13.8622 12.3069 13.895 12.2499C14.29 11.5659 14.4979 10.7899 14.4979 9.99995C14.4979 9.21003 14.29 8.43403 13.895 7.74995C13.8588 7.69304 13.8345 7.6294 13.8236 7.56286C13.8126 7.49632 13.8153 7.42825 13.8313 7.36275C13.8474 7.29725 13.8765 7.23568 13.9169 7.18173C13.9574 7.12778 14.0084 7.08257 14.0667 7.04882C14.1251 7.01508 14.1897 6.99349 14.2567 6.98536C14.3236 6.97722 14.3915 6.98272 14.4563 7.00151C14.521 7.0203 14.5813 7.05199 14.6335 7.09469C14.6857 7.13738 14.7287 7.19019 14.76 7.24995C15.2429 8.08596 15.4972 9.03436 15.4974 9.99981C15.4975 10.9653 15.2436 11.9138 14.761 12.7499C14.6947 12.8645 14.5857 12.9481 14.4578 12.9824C14.33 13.0167 14.1937 12.9989 14.079 12.9329Z" fill="black"/>
</svg>
